<svg xmlns="http://www.w3.org/2000/svg" enable-background="new 0 0 192 192" height="192" viewBox="0 0 192 192" width="192"><rect fill="none" height="192" width="192"/><g><g><linearGradient gradientUnits="userSpaceOnUse" id="SVGID_1_" x1="19.7945" x2="172.2079" y1="62.9962" y2="62.9962"><stop offset="0" style="stop-color:#D93025"/><stop offset="1" style="stop-color:#EA4335"/></linearGradient><path d="M19.79,51.98l12.13,37.01l25.98,29L96,52l76.21-0.01C156.99,25.69,128.56,8,96,8 C63.44,8,35.01,25.69,19.79,51.98z" fill="url(#SVGID_1_)"/><linearGradient gradientTransform="matrix(-0.5 -0.866 0.866 -0.5 69.4596 226.1023)" gradientUnits="userSpaceOnUse" id="SVGID_00000009569310020682935480000001622011162791801515_" x1="23.195" x2="175.6182" y1="55.0425" y2="55.0425"><stop offset="0" style="stop-color:#1E8E3E"/><stop offset="1" style="stop-color:#34A853"/></linearGradient><path d="M95.99,184l25.98-29.01l12.12-37l-76.2,0 l-38.11-66c-15.16,26.33-16.27,59.8,0.01,88C36.08,168.19,65.62,183.97,95.99,184z" fill="url(#SVGID_00000009569310020682935480000001622011162791801515_)"/><linearGradient gradientTransform="matrix(-0.5 0.866 -0.866 -0.5 199.0992 37.05)" gradientUnits="userSpaceOnUse" id="SVGID_00000116219878797137066920000004521392638138271373_" x1="32.5437" x2="184.9668" y1="26.8198" y2="26.8198"><stop offset="0" style="stop-color:#FBBC04"/><stop offset="1" style="stop-color:#FCC934"/></linearGradient><path d="M172.21,52L96,52l38.1,66L96,184 c30.38-0.03,59.92-15.81,76.2-44.01C188.48,111.79,187.37,78.32,172.21,52z" fill="url(#SVGID_00000116219878797137066920000004521392638138271373_)"/><ellipse cx="96" cy="95.99" fill="#FFFFFF" rx="43.99" ry="44"/><ellipse cx="96" cy="95.99" fill="#1A73E8" rx="35.74" ry="35.75"/></g></g></svg>