<svg xmlns="http://www.w3.org/2000/svg" xmlns:xlink="http://www.w3.org/1999/xlink" width="512" height="512" viewBox="0 0 512 512">
  <defs>
    <clipPath id="clip-custom_2">
      <rect width="512" height="512"/>
    </clipPath>
  </defs>
  <g id="custom_2" data-name="custom – 2" clip-path="url(#clip-custom_2)">
    <g id="Rectangle_1" data-name="Rectangle 1" transform="translate(25 24)" fill="#222931" stroke="#fff" stroke-width="5">
      <rect width="462" height="457" rx="228.5" stroke="none"/>
      <rect x="2.5" y="2.5" width="457" height="452" rx="226" fill="none"/>
    </g>
    <g id="tear" transform="translate(183.378 123.188)">
      <path id="Path_1" data-name="Path 1" d="M100.514,586.347c-22.544,0-60.357-1.741-60.357-13.412,0-4.446,3.289-8.937,27.158-11.7a4.471,4.471,0,1,1,1.028,8.882,95.77,95.77,0,0,0-15.657,2.83c7.284,2.082,23.394,4.453,47.828,4.453s40.544-2.371,47.83-4.453a95.937,95.937,0,0,0-15.662-2.83,4.471,4.471,0,0,1,1.029-8.882c23.868,2.759,27.16,7.25,27.16,11.7C160.871,584.606,123.055,586.347,100.514,586.347Zm0,0" transform="translate(-28.171 -325.747)" fill="#fff"/>
      <path id="Path_2" data-name="Path 2" d="M72.343,251.657c-44.572,0-80.835-35.878-80.835-79.978,0-42.455,73.86-165.764,77-170.993a4.649,4.649,0,0,1,7.666,0c3.144,5.229,77,128.538,77,170.993C153.178,215.779,116.917,251.657,72.343,251.657Zm0-239.879C56.944,38.082.451,136.961.451,171.682c0,39.17,32.249,71.035,71.892,71.035s71.894-31.866,71.894-71.035C144.236,136.957,87.74,38.082,72.343,11.778Zm0,0" transform="translate(0)" fill="#fff"/>
      <path id="Path_3" data-name="Path 3" d="M215.164,480.706a4.472,4.472,0,1,1,0-8.943,26.356,26.356,0,0,0,26.326-26.325,4.472,4.472,0,0,1,8.943,0A35.31,35.31,0,0,1,215.164,480.706Zm0,0" transform="translate(-126.923 -256.123)" fill="#fff"/>
    </g>
  </g>
</svg>
